# xmcd
#
# Track frame offsets: 
#        150
#        12675
#        23255
#        41177
#        54372
#        68345
#        81960
#        91665
#        109132
#        119897
#        133895
#        151195
#
# Disc length: 2196 seconds
#
# Revision: 0
# Processed by: cddbd v1.5.2PL0 Copyright (c) Steve Scherf et al.
# Submitted via: ExactAudioCopy v1.3
#
DISCID=9608920c
DTITLE=Jack Jezzro - Blue Ridge Country Praise
DYEAR=1900
DGENRE=
TTITLE0=This Is the Day
TTITLE1=Blessed Be the Name
TTITLE2=He Touched Me
TTITLE3=Come, Thou Fount of Every Blessing
TTITLE4=My Jesus, I Love Thee
TTITLE5=To God Be the Glory
TTITLE6=This Is My Father's World
TTITLE7=There's Something About That Name
TTITLE8=Fairest Lord Jesus
TTITLE9=My Wonderful Lord
TTITLE10=How Great Thou Art
TTITLE11=All That Thrills My Soul
EXTD=
EXTT0=
EXTT1=
EXTT2=
EXTT3=
EXTT4=
EXTT5=
EXTT6=
EXTT7=
EXTT8=
EXTT9=
EXTT10=
EXTT11=
PLAYORDER=
